<?xml version="1.0" encoding="UTF-8" standalone="no"?>
<svg
   xmlns:dc="http://purl.org/dc/elements/1.1/"
   xmlns:cc="http://creativecommons.org/ns#"
   xmlns:rdf="http://www.w3.org/1999/02/22-rdf-syntax-ns#"
   xmlns:svg="http://www.w3.org/2000/svg"
   xmlns="http://www.w3.org/2000/svg"
   xmlns:sodipodi="http://sodipodi.sourceforge.net/DTD/sodipodi-0.dtd"
   xmlns:inkscape="http://www.inkscape.org/namespaces/inkscape"
   viewBox="0 0 512 512"
   version="1.1"
   id="svg34"
   sodipodi:docname="burger.svg"
   inkscape:version="0.92.4 (unknown)">
  <metadata
     id="metadata40">
    <rdf:RDF>
      <cc:Work
         rdf:about="">
        <dc:format>image/svg+xml</dc:format>
        <dc:type
           rdf:resource="http://purl.org/dc/dcmitype/StillImage" />
      </cc:Work>
    </rdf:RDF>
  </metadata>
  <defs
     id="defs38" />
  <sodipodi:namedview
     pagecolor="#ffffff"
     bordercolor="#666666"
     borderopacity="1"
     objecttolerance="10"
     gridtolerance="10"
     guidetolerance="10"
     inkscape:pageopacity="0"
     inkscape:pageshadow="2"
     inkscape:window-width="1920"
     inkscape:window-height="1056"
     id="namedview36"
     showgrid="false"
     inkscape:zoom="1.3037281"
     inkscape:cx="128.58759"
     inkscape:cy="187.83239"
     inkscape:window-x="0"
     inkscape:window-y="24"
     inkscape:window-maximized="1"
     inkscape:current-layer="svg34" />
  <g
     id="g890">
    <path
       id="path2"
       d="M483.199 301.788c0 9.253-3.747 17.622-9.805 23.68-6.068 6.058-14.437 9.805-23.68 9.805H62.285c-18.486 0-33.485-14.988-33.485-33.485 0-4.955 1.072-9.649 2.998-13.875 1.676-3.674 3.987-6.984 6.807-9.805 6.068-6.058 14.437-9.805 23.68-9.805h387.43c13.542 0 25.21 8.035 30.487 19.61 1.925 4.226 2.997 8.92 2.997 13.875z"
       fill="#884d00" />
    <path
       id="path4"
       d="M480.202 287.913c-1.676 3.664-3.997 6.984-6.807 9.795-6.068 6.058-14.437 9.805-23.68 9.805H62.285c-13.531 0-25.199-8.035-30.487-19.599 1.676-3.674 3.986-6.984 6.807-9.805 6.068-6.058 14.437-9.805 23.68-9.805h387.43c13.541-.001 25.209 8.035 30.487 19.609z"
       fill="#aa6100" />
    <path
       sodipodi:nodetypes="ccc"
       style="fill:#eebf00;stroke-width:0.93665451"
       inkscape:connector-curvature="0"
       id="path10"
       d="m 398.387,259.2377 c -91.76633,100.99125 -144.55706,88.97779 -239.909,0 z" />
    <path
       sodipodi:nodetypes="ccc"
       style="fill:#ffd422"
       inkscape:connector-curvature="0"
       id="path12"
       d="m 398.387,254.252 c -111.12037,90.09777 -83.45479,109.27221 -192.727,0 z" />
    <path
       id="path14"
       d="M502.278 266.336c0 4.538-.749 9.18-2.373 13.708-6.36 17.747-23.388 24.637-36.659 14.832l-15.915-11.751c-11.106-8.212-25.272-4.85-33.308 7.911l-.677 1.072c-7.713 12.261-21.161 15.904-32.142 8.722l-35.639-23.305c-8.223-5.371-18.08-4.788-25.865 1.551l-28.561 23.232c-8.202 6.672-18.652 6.953-27.073.718l-32.579-24.148c-8.327-6.172-18.652-5.975-26.823.52L175 302.954c-7.963 6.318-17.976 6.682-26.209.968l-38.408-26.688c-7.557-5.246-16.664-5.392-24.325-.385l-35.826 23.43c-23.857 3.071-35.462-14.447-35.462-14.447-5.714-9.93-6.287-21.702-3.195-31.58 3.674-11.803 12.574-20.9 24.148-20.9h440.566c11.345 0 20.411 8.962 24.138 20.848 1.206 3.809 1.851 7.921 1.851 12.136z"
       fill="#6dc82a" />
    <path
       id="path16"
       d="M500.426 254.2c-.156.52-.333 1.03-.52 1.551-6.36 17.757-23.388 24.648-36.659 14.843l-15.915-11.762c-11.106-8.202-25.272-4.84-33.308 7.911l-.677 1.082c-7.713 12.261-21.161 15.904-32.142 8.722l-35.639-23.305c-8.223-5.381-18.08-4.788-25.865 1.551l-28.561 23.232c-8.202 6.672-18.652 6.943-27.073.708l-32.579-24.148c-8.327-6.172-18.652-5.964-26.823.52L175 278.67c-7.963 6.308-17.976 6.682-26.209.968l-38.408-26.688c-7.557-5.256-16.664-5.402-24.325-.385l-35.826 23.419c-23.857 3.081-35.462-14.447-35.462-14.447-1.343-2.342-2.404-4.788-3.195-7.286 3.674-11.803 12.574-20.901 24.148-20.901h440.566c11.344.001 20.41 8.963 24.137 20.85z"
       fill="#7ed63e" />
    <path
       style="stroke:none"
       id="path18"
       d="M493.389 211.93c.073 3.466-.385 6.807-1.28 9.961-4.028 14.031-16.956 24.294-32.277 24.294-60.162 0-220.403-1.353-244.571-.552-.541.021-1.082.042-1.613.052-30.518 1.155-37.471 6.047-37.471 22.316v61.69649s-35.20931.18491-86.902-.29549c.01-3.601 1.478-6.87 3.841-9.222 2.373-2.363 5.631-3.82 9.243-3.82 7.224 0 13.084-5.86 13.084-13.084v-35.275c0-12.053-9.763-21.816-21.816-21.816H52.803c-18.371 0-33.828-14.499-34.203-32.87-.375-18.85 14.801-34.255 33.568-34.255h406.998c18.381 0 33.859 14.499 34.223 32.87z"
       fill="#ff3501" />
    <path
       style="stroke:none"
       id="path20"
       d="M493.389 211.93c.073 3.466-.385 6.807-1.28 9.961-63.69-.062-215.875-1.322-239.377-.552-31.892 1.051-39.084 5.829-39.084 22.379v1.967c-30.518 1.155-37.471 6.047-37.471 22.316v59.527c-24.01662 4.18745-63.01935 5.60902-49.431-22.41.01-3.612 1.478-6.87 3.841-9.222 2.373-2.363 5.631-3.82 9.243-3.82 7.224 0 13.084-5.86 13.084-13.084v-35.275c0-12.053-9.763-21.816-21.816-21.816H90.274c-18.371 0-33.828-14.499-34.203-32.87-.073-3.466.385-6.807 1.291-9.971h401.804c18.381 0 33.859 14.499 34.223 32.87z"
       fill="#ff5023" />
    <path
       style="fill:#eebf00;stroke-width:0.70023179"
       inkscape:connector-curvature="0"
       id="path22"
       d="m 299.352,179.06 -74.266,36.42964 c -7.442,3.649 -16.217,6.24674 -25.564,7.78293 -23.045,3.81766 -49.524,1.21992 -67.864,-7.78293 L 57.362,179.06 Z" />
    <path
       style="fill:#ffd422;stroke-width:0.72858059"
       inkscape:connector-curvature="0"
       id="path24"
       d="m 299.352,179.06 -74.266,39.43906 c -7.442,3.95043 -16.217,6.76277 -25.564,8.42586 -9.337,-1.66309 -18.111,-4.47543 -25.543,-8.42586 L 99.682,179.06 Z" />
  </g>
  <g
     id="g861">
    <path
       fill="#ffa733"
       id="path26"
       d="M512 155.391c0 .552-.021 1.093-.052 1.634-.406 6.984-3.404 13.281-8.046 17.924-5.007 5.007-11.918 8.098-19.558 8.098H27.656C12.386 183.046 0 170.66 0 155.391 0 122.25 15.363 97.3 38.564 78.533c18.829-15.238 42.831-26.407 67.958-34.598C176.822 21.047 256 21.473 256 21.473s256-1.384 256 133.918z" />
    <path
       fill="#ffb655"
       id="path28"
       d="M512 155.391c0 .552-.021 1.093-.052 1.634H83.862c-15.269 0-27.656-12.386-27.656-27.656 0-33.141 15.363-58.091 38.564-76.857 3.726-3.019 7.65-5.87 11.751-8.577C176.822 21.047 256 21.473 256 21.473s256-1.384 256 133.918z" />
    <g
       id="g32"
       fill="#fff5cc">
      <path
         id="path30"
         d="M393.6 69.855c4.439 4.698 4.229 12.105-.468 16.545-4.698 4.439-12.105 4.229-16.544-.468s-12.61-20.974-7.912-25.414 20.485 4.638 24.924 9.337zM331.565 127.694c2.317 6.034-.696 12.804-6.73 15.121-6.034 2.317-12.804-.696-15.121-6.73-2.317-6.034-3.678-24.195 2.355-26.512 6.034-2.316 17.179 12.087 19.496 18.121zM267.703 79.559c0 6.464-5.24 11.703-11.703 11.703-6.464 0-11.703-5.24-11.703-11.703 0-6.464 5.24-23.905 11.703-23.905 6.464-.001 11.703 17.441 11.703 23.905zM203.354 135.028c-1.616 6.258-8 10.021-14.258 8.405-6.258-1.616-10.021-8-8.405-14.258 1.616-6.258 11.051-21.835 17.31-20.219 6.258 1.616 6.969 19.815 5.353 26.072zM138.969 84.05c-2.818 5.816-9.817 8.248-15.635 5.43-5.816-2.818-8.248-9.817-5.43-15.635 2.818-5.816 15.137-19.23 20.955-16.411 5.817 2.819 2.928 20.8.11 26.616z" />
    </g>
  </g>
  <g
     id="g855">
    <path
       fill="#ffa733"
       id="path6"
       d="M512 362.303c0 43.144-19.974 75.202-52.262 96.467-32.298 21.275-76.909 31.757-126.184 31.757H178.445C79.897 490.527 0 448.591 0 362.303c0-4.809 1.197-9.368 3.362-13.469 1.832-3.497 4.361-6.651 7.432-9.337 6.662-5.839 15.884-9.451 26.053-9.451h438.307c14.853 0 27.656 7.702 33.485 18.788 2.164 4.102 3.361 8.661 3.361 13.469z" />
    <path
       fill="#ffb655"
       id="path8"
       d="M508.638 348.835c-6.953 28.728-24.377 51.106-48.9 67.26-32.298 21.275-76.909 31.757-126.184 31.757H178.445c-86.704 0-158.96-32.454-175.083-99.017 1.832-3.497 4.361-6.651 7.432-9.337 6.662-5.839 15.884-9.451 26.053-9.451h438.307c14.853 0 27.655 7.703 33.484 18.788z" />
  </g>
</svg>
