<svg xmlns="http://www.w3.org/2000/svg" fill="none" viewBox="0 0 252 38">
  <path fill="#E73737" d="M6.296 8.592c0-2.464 1.056-4.512 3.168-6.144 2.144-1.632003 4.784-2.44800286 7.92-2.44800286 2.432 0 4.32.49599986 5.664 1.48800286 1.376.992 2.064 2.416 2.064 4.272 0 1.44-.368 2.608-1.104 3.504-.704.896-1.648 1.344-2.832 1.344-.448 0-.864-.08-1.248-.24-.352-.16-.672-.416-.96-.768.64-.384 1.152-.96 1.536-1.728.416-.768.624-1.568.624-2.4 0-1.024-.304-1.808-.912-2.352-.608-.576-1.488-.864-2.64-.864-1.376 0-2.464.384-3.264 1.152-.768.768-1.152 1.84-1.152 3.216 0 1.12.288 2.192.864 3.216.576.992 1.824 2.336 3.744 4.032 2.528 2.208 4.192 4.128 4.992 5.76.8 1.6 1.2 3.392 1.2 5.376 0 3.648-1.264 6.56-3.792 8.736-2.528 2.176-5.76 3.264-9.696 3.264-3.136 0-5.616-.72-7.44-2.16-1.824-1.44-2.736-3.472-2.736-6.096 0-2.304.688-4.192 2.064-5.664 1.376-1.472 3.04-2.208 4.992-2.208 1.216 0 2.208.288 2.976.864.768.544 1.184 1.312 1.248 2.304-1.664 0-3.024.4-4.08 1.2-1.024.8-1.536 1.904-1.536 3.312 0 1.344.416 2.448 1.248 3.312.832.864 1.952 1.296 3.36 1.296 1.664 0 3.008-.576 4.032-1.728 1.024-1.152 1.536-2.704 1.536-4.656 0-1.504-.336-2.944-1.008-4.32-.672-1.376-2.064-3.216-4.176-5.52-1.92-2.048-3.184-3.648-3.792-4.8-.576-1.184-.864-2.368-.864-3.552zm35.679 5.616v.336L42.503 12h6.912l-3.456 16.32c-.064.288-.112.56-.144.816-.032.224-.048.464-.048.72 0 .704.16 1.232.48 1.584.32.32.816.48 1.488.48.832 0 1.584-.384 2.256-1.152.672-.8 1.216-1.92 1.632-3.36h2.016c-1.024 2.944-2.352 5.168-3.984 6.672-1.632 1.472-3.52 2.208-5.664 2.208-1.376 0-2.48-.384-3.312-1.152-.8-.768-1.264-1.856-1.392-3.264-.992 1.472-2.096 2.576-3.312 3.312-1.184.736-2.464 1.104-3.84 1.104-1.984 0-3.552-.672-4.704-2.016-1.12-1.344-1.68-3.248-1.68-5.712 0-1.792.272-3.664.816-5.616.544-1.952 1.296-3.728 2.256-5.328 1.184-1.888 2.56-3.328 4.128-4.32 1.568-1.024 3.28-1.536 5.136-1.536 1.248 0 2.208.224 2.88.672.672.416 1.008 1.008 1.008 1.776zm-.432 2.352c0-.48-.176-.896-.528-1.248-.352-.384-.832-.576-1.44-.576-1.76 0-3.328 1.472-4.704 4.416-1.344 2.944-2.016 5.856-2.016 8.736 0 1.248.176 2.192.528 2.832.352.608.976.912 1.872.912.832 0 1.632-.4 2.4-1.2.8-.8 1.328-1.808 1.584-3.024l2.304-10.848zm21.7616 14.304c0-.576.064-1.296.192-2.16.16-.864.464-2.24.912-4.128.448-1.824.736-3.136.864-3.936.128-.8.192-1.472.192-2.016 0-.8-.144-1.408-.432-1.824-.288-.416-.72-.624-1.296-.624-.768 0-1.488.4-2.16 1.2-.64.768-1.168 1.84-1.584 3.216L56.7286 36h-6.912l5.088-24h6.912l-.528 2.496c.8-.896 1.664-1.568 2.592-2.016.928-.448 1.936-.672 3.024-.672 1.696 0 3.008.464 3.936 1.392.928.928 1.392 2.272 1.392 4.032 0 .736-.096 1.616-.288 2.64-.16.992-.496 2.528-1.008 4.608-.416 1.632-.688 2.784-.816 3.456-.128.672-.192 1.232-.192 1.68 0 .672.16 1.184.48 1.536.32.32.8.48 1.44.48.8 0 1.488-.272 2.064-.816.576-.544 1.232-1.68 1.968-3.408h2.016c-1.024 2.976-2.272 5.2-3.744 6.672-1.44 1.472-3.168 2.208-5.184 2.208-1.792 0-3.184-.48-4.176-1.44-.992-.992-1.488-2.32-1.488-3.984zm19.1442-2.976c0 1.248.176 2.192.528 2.832.352.608.976.912 1.872.912.8 0 1.584-.368 2.352-1.104.768-.768 1.296-1.728 1.584-2.88v-.24l2.352-10.992c-.096-.512-.32-.912-.672-1.2-.32-.32-.752-.48-1.296-.48-1.76 0-3.328 1.472-4.704 4.416-1.344 2.944-2.016 5.856-2.016 8.736zm9.12-13.68v.192l2.352-11.04 7.1042-.96-5.5202 25.92c-.064.288-.112.56-.144.816-.032.224-.048.464-.048.72 0 .64.144 1.104.432 1.392.32.256.832.384 1.536.384.832 0 1.584-.368 2.256-1.104.6722-.736 1.2162-1.776 1.6322-3.12h2.016c-.992 2.848-2.288 4.992-3.8882 6.432-1.568 1.44-3.488 2.16-5.76 2.16-1.312 0-2.384-.352-3.216-1.056-.8-.736-1.296-1.76-1.488-3.072-.96 1.472-2.032 2.576-3.216 3.312-1.184.736-2.48 1.104-3.888 1.104-1.984 0-3.552-.672-4.704-2.016-1.12-1.344-1.6801-3.248-1.6801-5.712 0-1.792.272-3.664.8161-5.616.544-1.952 1.296-3.728 2.256-5.328 1.184-1.888 2.56-3.328 4.128-4.32 1.568-1.024 3.28-1.536 5.136-1.536 1.248 0 2.208.224 2.88.672.672.416 1.008 1.008 1.008 1.776zM117.978 3.36c1.632-1.056 3.376-1.872 5.232-2.448 1.888-.608002 3.728-.91200286 5.52-.91200286.224 0 .464.01600076.72.04800226.288 0 .688.0159998 1.2.0479994L131.082 29.616 141.162.239997h6.288V29.616L157.77.239997h3.36L147.786 36h-7.104V11.568L131.178 36h-7.056V3.216c-2.56.8-4.496 2.096-5.808 3.888-1.312 1.792-1.968 4.048-1.968 6.768 0 .608.032 1.136.096 1.584.096.448.24.88.432 1.296.064.128.096.224.096.288.032.032.048.064.048.096-1.792 0-3.104-.368-3.936-1.104-.8-.768-1.2-1.952-1.2-3.552s.528-3.2 1.584-4.8c1.088-1.6 2.592-3.04 4.512-4.32zm51.644 2.256c0 1.056-.384 1.952-1.152 2.688-.736.736-1.632 1.104-2.688 1.104-1.056 0-1.952-.368-2.688-1.104-.736-.736-1.104-1.632-1.104-2.688 0-1.056.368-1.952 1.104-2.688.736-.768 1.632-1.152 2.688-1.152 1.056 0 1.952.384 2.688 1.152.768.736 1.152 1.632 1.152 2.688zm-12.24 24.912c0-.416.032-.88.096-1.392.064-.544.16-1.12.288-1.728L161.03 12h6.912l-3.456 16.32c-.064.288-.112.56-.144.816-.032.224-.048.464-.048.72 0 .64.144 1.104.432 1.392.32.256.832.384 1.536.384.896 0 1.744-.384 2.544-1.152.8-.8 1.392-1.824 1.776-3.072h2.016c-1.024 2.912-2.4 5.12-4.128 6.624-1.728 1.504-3.712 2.256-5.952 2.256-1.6 0-2.864-.496-3.792-1.488-.896-1.024-1.344-2.448-1.344-4.272zm28.253-2.544c0 .384-.016.72-.048 1.008-.032.288-.08.56-.144.816.64-.384 1.264-.784 1.872-1.2.608-.416 1.136-.816 1.584-1.2h2.016c-.992 1.152-2.096 2.224-3.312 3.216-1.184.96-2.528 1.888-4.032 2.784-.864.928-1.968 1.648-3.312 2.16-1.344.48-2.752.72-4.224.72-2.144 0-3.856-.576-5.136-1.728-1.249-1.184-1.873-2.656-1.873-4.416 0-.992.24-1.888.72-2.688.48-.832 1.089-1.424 1.825-1.776 1.088-1.952 2.096-4.032 3.024-6.24.96-2.24 1.92-4.896 2.88-7.968l7.104-.96c.096 2.4.208 4.592.336 6.576.128 1.984.288 4.144.48 6.48.096 1.344.16 2.288.192 2.832s.048 1.072.048 1.584zm-7.872-11.328c-.416 1.312-.928 2.688-1.536 4.128-.576 1.408-1.36 3.056-2.352 4.944.352.16.624.384.816.672.192.288.288.624.288 1.008 0 .608-.208 1.152-.624 1.632-.416.48-.913.72-1.488.72-.32 0-.592-.048-.816-.144-.224-.128-.384-.288-.48-.48 0 1.184.224 2.048.672 2.592.48.512 1.232.768 2.256.768 1.312 0 2.336-.384 3.072-1.152.736-.768 1.104-1.872 1.104-3.312 0-.448-.016-.896-.048-1.344-.032-.48-.096-1.264-.192-2.352-.16-1.504-.288-2.832-.384-3.984-.096-1.152-.192-2.384-.288-3.696zm23.214 14.208c0-.576.064-1.296.192-2.16.16-.864.464-2.24.912-4.128.448-1.824.736-3.136.864-3.936.128-.8.192-1.472.192-2.016 0-.8-.16-1.408-.48-1.824-.288-.416-.72-.624-1.296-.624-.768 0-1.52.464-2.256 1.392-.704.896-1.168 1.84-1.392 2.832L194.401 36h-6.913l6.961-32.64 7.104-.96-2.592 12.096c.8-.896 1.664-1.568 2.592-2.016.928-.448 1.936-.672 3.024-.672 1.696 0 3.008.464 3.936 1.392.928.928 1.392 2.272 1.392 4.032 0 .736-.096 1.616-.288 2.64-.16.992-.496 2.528-1.008 4.608-.416 1.632-.688 2.784-.816 3.456-.128.672-.192 1.232-.192 1.68 0 .672.16 1.184.48 1.536.32.32.8.48 1.44.48.8 0 1.488-.272 2.064-.816.576-.544 1.232-1.68 1.967-3.408h2.017c-1.024 2.976-2.272 5.2-3.744 6.672-1.44 1.472-3.168 2.208-5.184 2.208-1.792 0-3.184-.48-4.176-1.44-.992-.992-1.488-2.32-1.488-3.984zm29.952-14.688c0 2.656-1.088 4.976-3.264 6.96-2.176 1.952-4.768 3.008-7.776 3.168-.032.544-.064.96-.096 1.248v.672c0 1.472.24 2.512.72 3.12.512.608 1.424.912 2.736.912 1.504 0 2.88-.336 4.128-1.008 1.28-.704 2.736-1.984 4.368-3.84h1.632c-1.856 3.008-3.872 5.248-6.048 6.72-2.176 1.44-4.56 2.16-7.152 2.16-2.464 0-4.337-.64-5.616-1.92-1.249-1.28-1.873-3.184-1.873-5.712 0-1.824.288-3.76.865-5.808.576-2.048 1.344-3.872 2.304-5.472 1.184-1.92 2.592-3.36 4.224-4.32 1.664-.992 3.52-1.488 5.567-1.488 1.761 0 3.073.384 3.937 1.152.896.736 1.344 1.888 1.344 3.456zm-4.896-2.064c-1.088 0-2.192.976-3.312 2.928-1.088 1.92-1.904 4.24-2.448 6.96 1.856-.128 3.472-.976 4.848-2.544 1.408-1.6 2.112-3.392 2.112-5.376 0-.672-.096-1.168-.288-1.488-.192-.32-.496-.48-.912-.48zm19.883 13.872c0 .384-.016.72-.048 1.008-.032.288-.08.56-.144.816.64-.384 1.264-.784 1.872-1.2.608-.416 1.136-.816 1.584-1.2h2.016c-.992 1.152-2.096 2.224-3.312 3.216-1.184.96-2.528 1.888-4.032 2.784-.864.928-1.968 1.648-3.312 2.16-1.344.48-2.752.72-4.224.72-2.144 0-3.856-.576-5.136-1.728-1.248-1.184-1.872-2.656-1.872-4.416 0-.992.24-1.888.72-2.688.48-.832 1.088-1.424 1.824-1.776 1.088-1.952 2.096-4.032 3.024-6.24.96-2.24 1.92-4.896 2.88-7.968l7.104-.96c.096 2.4.208 4.592.336 6.576.128 1.984.288 4.144.48 6.48.096 1.344.16 2.288.192 2.832s.048 1.072.048 1.584zm-7.872-11.328c-.416 1.312-.928 2.688-1.536 4.128-.576 1.408-1.36 3.056-2.352 4.944.352.16.624.384.816.672.192.288.288.624.288 1.008 0 .608-.208 1.152-.624 1.632-.416.48-.912.72-1.488.72-.32 0-.592-.048-.816-.144-.224-.128-.384-.288-.48-.48 0 1.184.224 2.048.672 2.592.48.512 1.232.768 2.256.768 1.312 0 2.336-.384 3.072-1.152.736-.768 1.104-1.872 1.104-3.312 0-.448-.016-.896-.048-1.344-.032-.48-.096-1.264-.192-2.352-.16-1.504-.288-2.832-.384-3.984-.096-1.152-.192-2.384-.288-3.696z"/>
</svg>
