<svg version="1" xmlns="http://www.w3.org/2000/svg" width="933.333" height="933.333" viewBox="0 0 700.000000 700.000000"><path d="M342.7 28.6c-.1.1-9 .4-19.7.8-10.7.3-21.3.8-23.5 1-2.2.2-7.6.7-12 1-4.4.4-9.1.9-10.5 1.1-1.4.2-5 .6-8 .9-24.7 2.6-59 8.8-84.5 15.2-19.4 4.9-48 13.9-57 17.9-1.6.8-6.1 2.6-10 4.1C96.4 78.8 63.9 98 50.9 110c-17.4 15.9-29.3 31.1-37.2 47.2-4.1 8.4-9 21.6-10.2 27.9-2.9 14.5-4 33.5-2.4 41.1 3 13.9 12.6 26.1 25.5 32.4l7 3.4-3.1 6.5c-7.2 14.7-7.5 29.6-1.1 45.5l2.4 5.8-3 2.9c-4.8 4.4-9.5 12.4-12.4 21-6.5 18.9-2.6 43.9 8.9 56.3 2.9 3.2 9.1 8.6 11.2 9.7.9.6 1.7 2.8 2 5.9.7 6.1 3.1 14.6 5.6 19.6 2 4 1.9 4.2-2.6 5.2-8.7 2.1-20.4 9.3-27.7 16.9-10 10.6-13.8 22-13.3 40 .6 23.8 4.9 43 14.1 62.5 1.9 4 3.4 7.5 3.4 7.8 0 .9 10.3 16.8 12.9 20 1.4 1.7 3.6 4.4 4.8 5.9C39 597.7 51.2 610 53.1 611c5.3 2.9 11.9.5 14.3-5.1 2-4.8.8-7.7-6.8-15.8-19.4-20.6-28.8-36.9-35.2-61.6-4.4-16.5-5.6-39.8-2.6-47.3 3.8-9.6 12.9-17.4 24.2-20.8 4.6-1.4 10.9-1.7 38.5-1.8h32.9l-.1 27.8c-.1 30.5.7 37.1 5.3 46 9.6 18.2 25.2 28.4 44.9 29.2 16.7.6 29-4.1 40.7-15.8 12.9-12.8 15.8-22.2 15.8-52.5 0-21.7.4-23.3 5.4-23.3 4.6 0 12-3.4 16.1-7.4l4.3-4.1h32.1l32 .1 7.4 7.3c17.9 17.7 35.1 25.4 55.9 25 21.6-.4 36.1-6.8 54.6-24.3l8.7-8.1 103 .1 103 .1 6.5 2.2c8.1 2.8 14.6 7.1 18.7 12.5 3.5 4.6 6.3 11.4 6.3 15.3 0 11 12.2 16.2 18.6 7.8 2.4-3.1 2.6-4.1 2-9.1-1.5-13.8-6.5-23.7-17-33.7-4.3-4.1-15-10.4-21-12.2-2.8-.9-5.7-1.8-6.4-2.1-1-.3-.8-1.3.7-4.2 2.3-4.4 4.8-13 5.5-18.7.3-2.8 1.2-4.4 2.8-5.4 4.8-3 12.5-12 15.6-18.1 4.7-9.2 6.9-18 7-28.5.1-15.9-4.7-29.9-13.9-39.9l-4.7-5.1 1.8-3.6c4.8-9.3 6.4-26 3.6-36.7-.8-3-2.8-8-4.5-11.2l-3-5.9 7.3-3.6c10.6-5.2 18.9-14 23-24.5 2.6-6.6 3.1-9.4 3-20.5 0-21.6-3.7-37.3-13.4-57-23.2-47.1-77.2-82.7-159.1-104.9-9-2.4-32.1-7.8-38.4-9-1.6-.3-5.5-1-8.5-1.5-11.3-2.1-32.6-5.3-35.2-5.3-6.3.1-11.1 5.9-9.8 11.8 1.7 7.3 3.8 8.2 30.5 12 9.1 1.3 35.1 6.8 50 10.6 86.9 22 141 59.7 157.8 109.8 3.8 11.3 5.5 22.3 5.3 34-.1 12.3-1.8 16.4-8.8 22.4-8.1 7 18.4 6.5-321.3 6.3l-308-.2-4.6-2.2c-5.3-2.6-10.3-7.9-13-13.7-3.6-7.9-1.8-29.9 3.7-46.6 6-17.9 14.9-31.7 30.9-47.5 30.1-30 77.8-51.7 146.6-67 14.8-3.3 18-3.9 25.4-5 1.7-.2 3.9-.6 5-.8 3-.7 11.5-1.9 21-3.2 2.8-.3 5.7-.8 6.5-1 .8-.2 4.7-.7 8.5-1 3.9-.4 8.1-.8 9.5-1.1 1.4-.2 5.9-.6 10-1 4.1-.3 9.1-.7 11-.9 19.2-2 59.4-2.5 82-1.1 22.4 1.5 22.9 1.4 26.3-.8 7.3-4.9 4.8-16.7-3.7-18.1-8.7-1.4-61.8-3.9-62.9-2.9zM161.3 289.5c26.8 26.6 34.3 32.7 46.9 38.4 11.1 5.1 19.8 7.5 30.7 8.7 2.5.2 4.7.7 5 .9.2.3-.7 1.8-2 3.3-4.9 5.3-5.8 7.5-7.4 17.2-.4 1.9-.7 22.5-.7 45.8-.1 28.6-.5 42.7-1.2 43.7-.6.8-3.1 1.7-5.6 2-2.4.4-6 1.3-8 2.1-4.3 1.8-10.5 7.8-11.8 11.3-.6 1.4-1.4 3.5-1.8 4.6-.4 1.1-.9 12.1-1 24.5-.3 26.5-1.3 30.7-9.2 38.8-6.7 6.8-12.9 9.5-22.8 10-7.2.4-8.7.1-14.5-2.5-7.9-3.7-13.9-9.9-16.8-17.7-2-5.4-2.1-7.4-2.1-40.4 0-33.7.1-34.9 2-37l2.3-2.3c.1 0 2.2-.2 4.7-.5 9.8-1.2 18.3-7 23.1-15.6 2.4-4.3 2.4-4.5 2.4-36.3v-32l-3.2-6.6c-5.2-10.7-13.2-17.8-24.1-21.3-4.6-1.6-10.1-1.8-39-2.1-18.7-.1-35-.7-36.7-1.2-27.1-8.9-33.9-43.3-11.8-59.6 3-2.2 3.4-2.2 39.7-2.2l36.8.1 26.1 25.9zM334 264c0 .9-32.3 32.4-37 36.2-18.8 15.1-47 20.2-70.3 12.7-7.7-2.4-17.1-7.2-23.2-11.9-4.2-3.1-33.5-31.6-37.2-36.1-1-1.2 10.6-1.4 83.3-1.4 46.4 0 84.4.2 84.4.5zm306.5 1.4c6.3 4.2 11.2 11.3 13 19 3.6 15.3-3.9 30.7-18.3 37.8l-6.7 3.3-166.5.2c-151.8.1-166.2 0-163.5-1.4 7.3-3.9 15.6-11.2 39.8-35.2l25.8-25.6h136.8c131.8 0 136.9.1 139.6 1.9zm-590 73c4 2.8 9 5 16 7.1 4.9 1.4 11.3 1.7 39.4 1.9 36.2.2 36.7.3 41.7 5.8 2.6 2.8 5.4 8.1 5.4 10.2 0 1.3-.5 1.4-2.7.5-1.6-.6-6-1.1-10-1.1-11.5-.1-16.2 2.3-52.7 26.4l-14.9 9.9-5.6-.5c-23-2.3-35.5-17.7-33-40.1 1.2-9.8 9.1-24.6 12.3-22.8.6.4 2.4 1.6 4.1 2.7zm609.3 3c6.6 9.9 8.2 23.6 4.2 35.6-3.9 11.5-11 18.6-19.8 19.7-6.4.7-9.3-.7-24.1-11.6-15.7-11.6-21.2-14.3-30.6-14.9-15.5-1-27 5.1-38.2 20.4-7.2 9.7-12 12.9-19.2 12.9-6.8-.1-2.2 2.5-49.6-28.3-15.3-10-19.6-11.6-30.5-11.5-10.5.1-19.7 4.6-33.5 16.4-1.1 1-8.7 7.2-16.8 13.8-22.1 18-23.8 18.1-44.5 2.8-7.5-5.6-14.1-10.5-14.7-11-.5-.5-5.6-4.2-11.3-8.2-14.1-10.1-19.9-12.7-29-13.1-12.7-.6-20 2.8-38.7 17.9-4.4 3.6-8.3 6.1-8.6 5.6-.3-.5-.5-7.4-.4-15.3.3-16.9 1.2-19.3 9.2-22 12.8-4.4 17.5-4.4 277.3-3.7 66.8.2 87.6 0 91.5-1 5.7-1.4 13.6-4.8 18-7.8 4.2-2.8 5.5-2.3 9.3 3.3zM149 385.7l3.5 2 .3 14c.3 15.8-.2 17.1-7.5 18-10.5 1.2-18.2 5.9-22.9 13.8l-2.5 4.4H96.1l-23.7.1-3.5-3.8c-4.3-4.5-6.8-8.5-7.9-12.3l-.9-2.9 6 .4c11.9.7 14-.2 35-14.1 10.7-7 19.9-13 20.4-13.3.6-.3 3-1.8 5.5-3.5 2.5-1.6 5.6-3.5 7-4.1 3.6-1.6 11-.9 15 1.3zm311.6.5c3.8 1.6 14.4 8.7 14.4 9.6 0 .4-4.2 4.7-9.2 9.6-5.1 4.9-19.4 18.8-31.8 30.9-12.4 12.1-25.2 23.8-28.4 25.9-15.3 9.8-34.3 10.6-51.6 2.2-6.9-3.4-10-6.3-40.5-36.6l-33-32.8 5-3.6c6.6-4.8 10.6-6.4 15.5-6.4 5 0 6.8 1.1 33.5 20.9 11.6 8.5 22.9 16.6 25.3 17.9 11.5 6.5 25.8 6.3 37.4-.5 2.6-1.6 13.8-10.2 24.9-19.2 11.1-9 22-17.2 24.3-18.2 4.4-2 9.1-2 14.2.3zm132.9 5.8c1.1.4 7.9 5 15 10.2 14.7 10.8 19.3 13.4 26.5 14.9 2.7.6 5 1.5 5 2.1 0 2.3-5.4 11.6-8.8 15.1l-3.6 3.7h-83l-83-.1 15.6-15.6 15.7-15.7 8.4 5.6c15.3 10.2 21.6 12.6 31.8 12.2 13.4-.6 23.8-6.9 34.1-20.6 3.2-4.2 7-8.5 8.6-9.6 5.2-3.7 11.4-4.5 17.7-2.2zm-314 31l15 15-20-.1-20-.1v-21.9l5-3.9c2.8-2.2 5-4 5-4l15 15z"/><path d="M343.5 75.4c-12.9 5.8-23.2 36.4-17.1 51 6.6 15.9 28.8 20.1 41.7 8 1.4-1.4 3.6-4.6 4.9-7.2 7.2-14.2-3.1-46-16.7-51.8-4-1.7-8.9-1.7-12.8 0zm9.4 30.1c2.5 7.8 2.7 11.8.5 13.9-3.2 3.3-8.4.8-8.4-4 0-3.3 4-16.4 5-16.4.4 0 1.7 2.9 2.9 6.5zM182.2 78.6c-5.1 2.6-15.1 11.5-20.5 18.3-3.9 5-6.9 13.6-6.6 19.1.6 10.8 8.1 20.5 18 23.4 6.7 2 9.4 2 16-.1 12.8-4.1 20-18.2 20.1-38.9 0-7.6-.4-9.8-2.8-15.4-3.8-8.7-14.1-11.4-24.2-6.4zm6.2 25.1c-.3 2.7-1.2 7.2-2 10-1.2 4.3-1.9 5.4-4.1 5.9-6 1.6-8.2-4.4-3.7-10.3 2.2-3 9.4-10.2 10.1-10.3.2 0 0 2.1-.3 4.7zM496.5 80.4c-8.6 3.8-11.3 14.7-6.9 27.9 4.7 14.1 12.4 24.6 21.2 28.9 8.9 4.2 21.9 2 28.5-5 7.1-7.5 9.6-19.7 5.9-28.3-6.6-15.1-35.7-29.2-48.7-23.5zm18.8 23.2c9.6 4.8 13 10 9.1 13.8-2 2-3.4 2-6.2 0-2.7-1.9-10.3-16.4-8.6-16.4.2 0 2.8 1.2 5.7 2.6zM266.9 145.4c-7.2 2.6-12.1 7.2-19.3 18-10.4 15.6-10.7 30.3-.7 40.5 11.8 12.1 33.8 8.6 41.1-6.5 4.6-9.4 4.6-27.4-.1-39.8-2.1-5.7-8.6-12.6-11.8-12.6-.9 0-2.5-.2-3.6-.5s-3.6.1-5.6.9zm3.6 36.4c-.1 3.9-.8 5.9-2.4 7.5-2 2-2.3 2.1-4.9.7-4.7-2.7-4-6.6 3.2-17.2l3.1-4.6.6 4.1c.4 2.3.6 6.6.4 9.5zM420.4 146.4c-10 4.4-14.2 19.7-10.9 39.2 2.1 11.9 6.2 18.2 14.5 22.5 19.2 10 41.5-7.3 36.8-28.5-2.3-10.3-16.3-27.6-26.1-32.2-5.8-2.7-9.7-3-14.3-1zm19.2 35.1c1.9 4 1.1 7.3-1.9 8.4-5.1 2-7.6-2.3-8.3-13.9l-.4-7.5 4.5 4.8c2.5 2.7 5.2 6.4 6.1 8.2zM680.6 522.5c-4.1 2.2-5.1 3.9-8.1 13.5-14.4 46.1-55.8 82.4-114.5 100.4-8.9 2.7-27 7.1-33 8.1-1.9.3-4.6.7-6 1-4.8.9-8.6 1.4-14.5 2-3.3.3-6.7.8-7.5 1-5.9 1.6-38.9 2-148 2-119.2-.1-132.4-.3-150.5-2.6-4.4-.6-9.6-1.3-11.5-1.5-11.4-1.5-41.1-8.3-45.1-10.4-1-.6-2.5-1-3.4-1-2.4 0-25-9.2-35.5-14.5-7.3-3.7-10-4.5-12.7-4.2-9.4 1.3-12 13.7-4 18.6 9.4 5.7 29.9 14.8 44.2 19.4 16.3 5.3 41.1 11 58 13.2 2.8.3 6.6.9 8.5 1.2 14.9 2.2 41.5 2.7 153 2.7 101.6 0 136.2-.4 143.5-1.8 1.1-.2 5.1-.7 8.8-1.1 3.7-.3 7.6-.8 8.5-1 .9-.1 3.7-.6 6.2-1s5.2-.9 6-1c.8-.1 3.5-.6 6-1 6.6-1.1 6.5-1.1 18.4-4 17.2-4.2 33.9-9.9 47.4-16.1 4.1-1.9 7.5-3.4 7.7-3.4.9 0 20-11 25-14.4 32.5-22.1 53.9-49.8 64.6-83.6 2.6-8.3 3.1-10.8 2.3-13.7-1.6-6.3-8.4-9.6-13.8-6.8z"/></svg>